<?xml version="1.0" encoding="UTF-8" standalone="no"?>
<!-- Generator: Adobe Illustrator 27.8.1, SVG Export Plug-In . SVG Version: 6.00 Build 0)  -->

<svg
   version="1.1"
   id="Layer_1"
   x="0px"
   y="0px"
   viewBox="0 0 246.89999 187.92"
   xml:space="preserve"
   sodipodi:docname="attacheCaseBuckles.svg"
   width="246.89999"
   height="187.92"
   inkscape:version="1.3 (0e150ed6c4, 2023-07-21)"
   xmlns:inkscape="http://www.inkscape.org/namespaces/inkscape"
   xmlns:sodipodi="http://sodipodi.sourceforge.net/DTD/sodipodi-0.dtd"
   xmlns="http://www.w3.org/2000/svg"
   xmlns:svg="http://www.w3.org/2000/svg"><defs
   id="defs14" /><sodipodi:namedview
   id="namedview14"
   pagecolor="#ffffff"
   bordercolor="#000000"
   borderopacity="0.25"
   inkscape:showpageshadow="2"
   inkscape:pageopacity="0.0"
   inkscape:pagecheckerboard="0"
   inkscape:deskcolor="#d1d1d1"
   inkscape:zoom="2.545"
   inkscape:cx="138.50688"
   inkscape:cy="92.534381"
   inkscape:window-width="1366"
   inkscape:window-height="705"
   inkscape:window-x="-8"
   inkscape:window-y="-8"
   inkscape:window-maximized="1"
   inkscape:current-layer="Layer_1" />&#10;<style
   type="text/css"
   id="style1">&#10;	.st0{fill:#FFFFFF;stroke:#2E3192;stroke-miterlimit:10;}&#10;	.st1{fill:none;stroke:#2E3192;stroke-miterlimit:10;}&#10;</style>&#10;<path
   class="st0"
   d="M 238.52,187.42 H 8.38 c -4.35,0 -7.88,-3.53 -7.88,-7.88 V 49.82 c 0,-4.35 3.53,-7.88 7.88,-7.88 h 230.14 c 4.35,0 7.88,3.53 7.88,7.88 v 129.72 c 0,4.35 -3.53,7.88 -7.88,7.88 z"
   id="path1"
   style="stroke-width:2;stroke-dasharray:none" />&#10;&#10;<path
   class="st0"
   d="M 35.52,37.57"
   id="path3" />&#10;<path
   class="st0"
   d="M 53.03,41.94 H 39.88"
   id="path4" />&#10;<path
   class="st0"
   d="M 59.15,29.86 V 11.74 C 59.15,5.53 70.41,0.5 84.3,0.5 h 75.78 c 13.89,0 25.15,5.03 25.15,11.24 v 18.12"
   id="path5"
   style="fill:none;stroke-width:2;stroke-dasharray:none" />&#10;<path
   class="st0"
   d="M 73.6,29.86 V 17.68 c 0,-4.17 8.64,-7.55 19.31,-7.55 h 58.17 c 10.66,0 19.31,3.38 19.31,7.55 v 12.17"
   id="path6"
   style="stroke-width:2;stroke-dasharray:none" />&#10;<path
   class="st0"
   d="m 55.09,41.25 v -7.03 c 0,-2.41 1.95,-4.36 4.36,-4.36 H 72.6 c 2.41,0 4.36,1.95 4.36,4.36 v 7.03"
   id="path7"
   style="stroke-width:2;stroke-dasharray:none" />&#10;<path
   class="st0"
   d="m 167.01,41.25 v -7.03 c 0,-2.41 1.95,-4.36 4.36,-4.36 h 13.15 c 2.41,0 4.36,1.95 4.36,4.36 v 7.03"
   id="path8"
   style="stroke-width:2;stroke-dasharray:none" />&#10;&#10;&#10;&#10;&#10;&#10;&#10;<path
   class="st0"
   d="M 237.68858,101.99222 H 8.6876395 c -4.32847,0 -7.82716999,-1.46029 -7.84098999,-3.259701 l -0.39419,-51.303353 c -0.0138,-1.799398 3.90670999,-5.61722 8.23517999,-5.61722 H 237.68858 c 4.32848,0 8.62948,3.424847 8.62939,5.224299 l -0.003,50.124564 c 0,0 -4.29839,4.831411 -8.62687,4.831411 z"
   id="path1-1"
   style="fill:#ffffff;stroke:#2e3192;stroke-width:2;stroke-miterlimit:10;stroke-dasharray:none"
   sodipodi:nodetypes="ssssssscs" /><path
   class="st0"
   d="m 72.77422,130.70955 h -15.69 c -1.71,0 -3.1,-1.39 -3.1,-3.1 V 77.069549 c 0,-1.71 1.39,-3.1 3.1,-3.1 h 15.69 c 1.71,0 3.1,1.39 3.1,3.1 v 50.540001 c 0,1.72 -1.39,3.1 -3.1,3.1 z"
   id="path9-4"
   style="fill:#ffffff;stroke:#2e3192;stroke-miterlimit:10;stroke-width:2;stroke-dasharray:none" /><path
   class="st1"
   d="m 75.02422,125.50955 h -19.96 c -1.73,0 -3.13,-1.4 -3.13,-3.13 v -13.76 c 0,-1.73 1.4,-3.13 3.13,-3.13 h 19.96 c 1.73,0 3.13,1.4 3.13,3.13 v 13.76 c 0.01,1.73 -1.39,3.13 -3.13,3.13 z"
   id="path11-5"
   style="fill:none;stroke:#2e3192;stroke-miterlimit:10;stroke-width:2;stroke-dasharray:none" /><path
   class="st0"
   d="m 64.76422,119.75955 c 0,1.11 0,2.01 0,2.01 0,0 0,-0.9 0,-2.01 0,-1.11 0,-2.01 0,-2.01 0,0 0,0.9 0,2.01 z"
   id="path13-5"
   style="fill:#ffffff;stroke:#2e3192;stroke-miterlimit:10;stroke-width:2;stroke-dasharray:none" /><path
   class="st0"
   d="m 186.13769,130.08676 h -15.69 c -1.71,0 -3.1,-1.39 -3.1,-3.1 V 76.446759 c 0,-1.71 1.39,-3.1 3.1,-3.1 h 15.69 c 1.71,0 3.1,1.39 3.1,3.1 v 50.540001 c 0,1.72 -1.39,3.1 -3.1,3.1 z"
   id="path9-8"
   style="fill:#ffffff;stroke:#2e3192;stroke-miterlimit:10;stroke-width:2;stroke-dasharray:none" /><path
   class="st1"
   d="m 188.38769,124.88676 h -19.96 c -1.73,0 -3.13,-1.4 -3.13,-3.13 v -13.76 c 0,-1.73 1.4,-3.13 3.13,-3.13 h 19.96 c 1.73,0 3.13,1.4 3.13,3.13 v 13.76 c 0.01,1.73 -1.39,3.13 -3.13,3.13 z"
   id="path11-9"
   style="fill:none;stroke:#2e3192;stroke-miterlimit:10;stroke-width:2;stroke-dasharray:none" /><path
   class="st0"
   d="m 178.12769,119.13676 c 0,1.11 0,2.01 0,2.01 0,0 0,-0.9 0,-2.01 0,-1.11 0,-2.01 0,-2.01 0,0 0,0.9 0,2.01 z"
   id="path13-7"
   style="fill:#ffffff;stroke:#2e3192;stroke-miterlimit:10;stroke-width:2;stroke-dasharray:none" /></svg>
