<?xml version="1.0" encoding="UTF-8" standalone="no"?>
<!-- Generator: Adobe Illustrator 27.8.1, SVG Export Plug-In . SVG Version: 6.00 Build 0)  -->

<svg
   version="1.1"
   id="Layer_1"
   x="0px"
   y="0px"
   viewBox="0 0 246.89999 187.92"
   xml:space="preserve"
   sodipodi:docname="EnvelopePencil.svg"
   width="246.89999"
   height="187.92"
   inkscape:version="1.3 (0e150ed6c4, 2023-07-21)"
   xmlns:inkscape="http://www.inkscape.org/namespaces/inkscape"
   xmlns:sodipodi="http://sodipodi.sourceforge.net/DTD/sodipodi-0.dtd"
   xmlns="http://www.w3.org/2000/svg"
   xmlns:svg="http://www.w3.org/2000/svg"><defs
   id="defs14" /><sodipodi:namedview
   id="namedview14"
   pagecolor="#ffffff"
   bordercolor="#000000"
   borderopacity="0.25"
   inkscape:showpageshadow="2"
   inkscape:pageopacity="0.0"
   inkscape:pagecheckerboard="0"
   inkscape:deskcolor="#d1d1d1"
   inkscape:zoom="2.545"
   inkscape:cx="122.78978"
   inkscape:cy="114.14538"
   inkscape:window-width="1366"
   inkscape:window-height="705"
   inkscape:window-x="-8"
   inkscape:window-y="-8"
   inkscape:window-maximized="1"
   inkscape:current-layer="Layer_1" />&#10;<style
   type="text/css"
   id="style1">&#10;	.st0{fill:#FFFFFF;stroke:#2E3192;stroke-miterlimit:10;}&#10;	.st1{fill:none;stroke:#2E3192;stroke-miterlimit:10;}&#10;</style>&#10;<path
   class="st0"
   d="M 238.52,187.42 H 8.38 c -4.35,0 -7.88,-3.53 -7.88,-7.88 V 49.82 c 0,-4.35 3.53,-7.88 7.88,-7.88 h 230.14 c 4.35,0 7.88,3.53 7.88,7.88 v 129.72 c 0,4.35 -3.53,7.88 -7.88,7.88 z"
   id="path1"
   style="stroke-width:2;stroke-dasharray:none" /><polygon
   class="st0"
   points="125.55,74.69 125.81,74.26 3.4,1.52 2.88,2.38 125.29,75.12 125.81,74.26 125.55,74.69 125.81,74.26 3.4,1.52 2.88,2.38 125.29,75.12 125.81,74.26 "
   id="polygon3"
   style="fill:#2e3192;stroke:#2e3192;stroke-miterlimit:10;stroke-width:0.90107905;stroke-dasharray:none"
   transform="matrix(1.0076503,0,0,1.2222622,-0.65498078,42.205612)" /><polyline
   class="st0"
   points="218.04,1.53 145.53,47.12 146.07,47.97 218.57,2.37  "
   id="polyline3"
   style="fill:#2e3192;stroke:#2e3192;stroke-width:0.858914;stroke-miterlimit:10;stroke-dasharray:none"
   transform="matrix(1.0032618,0,0,1.2529944,-0.2191214,39.817322)" /><polyline
   class="st0"
   points="248.25,22.29 162.92,72.7 163.43,73.56 248.75,23.16  "
   id="polyline4"
   style="fill:#2e3192;stroke:#2e3192;stroke-width:0.888332;stroke-miterlimit:10;stroke-dasharray:none"
   transform="matrix(0.97973351,0,0,1.2473635,3.5075241,40.677039)" /><polyline
   class="st0"
   points="145.4,47.25 125.15,74.39 125.95,74.99 146.2,47.85  "
   id="polyline5"
   style="fill:#2e3192;stroke:#2e3192;stroke-miterlimit:10;stroke-width:0.8883324;stroke-dasharray:none"
   transform="matrix(0.99787001,0,0,1.2699161,0.56372506,39.00427)" /><polyline
   class="st0"
   points="125.44,75.5 163.2,73.63 163.15,72.63 125.39,74.5  "
   id="polyline6"
   style="fill:#2e3192;stroke:#2e3192;stroke-miterlimit:10;stroke-width:0.8883324;stroke-dasharray:none"
   transform="matrix(0.99787001,0,0,1.2699161,0.56372506,39.00427)" /><polygon
   class="st2"
   points="137.44,74.57 133.08,65.1 132.58,65.77 132.98,66.07 132.52,66.28 135.91,73.65 127.59,74.13 133.38,66.37 132.98,66.07 132.52,66.28 132.98,66.07 132.58,65.77 125.51,75.25 "
   id="polygon7"
   style="fill:#363795"
   transform="matrix(0.99787001,0,0,1.2699161,0.56372506,39.00427)" />&#10;&#10;<path
   class="st0"
   d="M 35.52,37.57"
   id="path3" />&#10;<path
   class="st0"
   d="M 53.03,41.94 H 39.88"
   id="path4" />&#10;&#10;&#10;&#10;&#10;&#10;&#10;&#10;&#10;&#10;&#10;</svg>
